# xmcd CD database file
#
# Track frame offsets:
#	150
#	18360
#	33453
#	43948
#	61778
#	74850
#	86655
#	94048
#	110825
#	126235
#	145108
#	152960
#	160238
#	174238
#	194323
#	201238
#	216028
#	226475
#	234335
#	241055
#	250458
#	264188
#	278270
#	287230
#	299793
#
# Disc length: 4176 seconds
#
# Revision: 2
# Processed by: cddbd v1.5.2PL0 Copyright (c) Steve Scherf et al.
# Submitted via: CDex 1.51
#
DISCID=76104e19
DTITLE=Various Acoustic - Fingerpicking Guitar Delights
DYEAR=1992
DGENRE=Acoustic
TTITLE0=Duck Baker/Allegheny County
TTITLE1=Leo Wijnkamp jr./Golliwog's Cakewalk
TTITLE2=Dave Evans/Jessica
TTITLE3=Lasse Johansson and Claes Palmqvist/Ragtime Nightingale
TTITLE4=Ton Van Bergeyk/By A Waterfall
TTITLE5=Duck Baker/Back Home in Indiana
TTITLE6=Dave Evans/Cold Feet
TTITLE7=Leo Wijnkamp jr./Hilarity Rag
TTITLE8=Duck Baker/Hick's Farewell
TTITLE9=Lasse Johansson and Claes Palmqvist/Heliotrope Bouquet
TTITLE10=Ton Van Bergeyk/T.N.T.
TTITLE11=Duck Baker/Mardi Gras Dance
TTITLE12=Lasse Johansson/Creole Belles - March and Two Step
TTITLE13=Leo Wijnkamp jr./Manya Berserka
TTITLE14=Dave Evans/Grey Hills
TTITLE15=Lasse Johansson and Claes Palmqvist/Cataract Rag
TTITLE16=Duck Baker/The Jackson Stomp
TTITLE17=Ton Van Bergeyk/Light and Butter
TTITLE18=Lasse Johansson/Original Dixieland One-Step
TTITLE19=Dave Evans/Ugly Duckling
TTITLE20=Duck Baker/You Took Advantage of Me
TTITLE21=Lasse Johansson and Claes Palmqvist/Chromatic Rag
TTITLE22=Duck Baker/No Love
TTITLE23=Ton Van Bergeyk/R.A.F. Shuffle
TTITLE24=Dave Evans/Jolymont
EXTD=YEAR: 1992
EXTT0=
EXTT1=
EXTT2=
EXTT3=
EXTT4=
EXTT5=
EXTT6=
EXTT7=
EXTT8=
EXTT9=
EXTT10=
EXTT11=
EXTT12=
EXTT13=
EXTT14=
EXTT15=
EXTT16=
EXTT17=
EXTT18=
EXTT19=
EXTT20=
EXTT21=
EXTT22=
EXTT23=
EXTT24=
PLAYORDER=
